<?xml version="1.0" standalone="no"?>
<!DOCTYPE svg PUBLIC "-//W3C//DTD SVG 20010904//EN"
 "http://www.w3.org/TR/2001/REC-SVG-20010904/DTD/svg10.dtd">
<svg version="1.0" xmlns="http://www.w3.org/2000/svg"
 width="512.000000pt" height="512.000000pt" viewBox="0 0 512.000000 512.000000"
 preserveAspectRatio="xMidYMid meet">
<metadata>
Created by potrace 1.14, written by Peter Selinger 2001-2017
</metadata>
<g transform="translate(0.000000,512.000000) scale(0.100000,-0.100000)"
fill="#000000" stroke="none">
<path d="M2349 5116 c-2 -2 -26 -6 -54 -9 -527 -55 -1064 -294 -1444 -641
-164 -150 -321 -332 -432 -501 -159 -241 -288 -539 -355 -822 -27 -113 -30
-131 -49 -272 -12 -91 -14 -556 -2 -606 3 -12 9 -48 13 -80 4 -33 8 -62 9 -65
1 -3 5 -25 9 -50 47 -272 192 -630 360 -890 412 -638 1060 -1047 1841 -1161
100 -14 447 -20 540 -8 391 49 684 135 976 287 490 255 921 718 1148 1232 77
174 160 455 176 596 4 32 9 61 10 64 25 42 25 697 0 740 -1 3 -5 28 -9 55 -24
196 -106 452 -221 690 -178 369 -396 638 -747 920 -32 26 -227 155 -234 155
-4 0 -15 6 -23 14 -23 20 -262 139 -351 174 -68 27 -254 89 -290 97 -8 2 -46
11 -85 20 -88 21 -83 20 -185 34 -47 6 -101 14 -120 17 -40 6 -476 15 -481 10z
m391 -320 c130 -10 307 -43 415 -77 205 -63 315 -111 482 -206 474 -271 835
-716 1003 -1238 40 -127 78 -295 88 -388 9 -91 9 -490 0 -577 -28 -276 -173
-666 -342 -923 -107 -162 -135 -195 -351 -417 l-92 -95 3 -55 c3 -51 3 -52 -7
-20 -48 167 -73 229 -120 297 -16 23 -29 45 -29 50 0 4 28 30 62 58 33 27 91
85 127 129 39 47 79 84 99 93 101 42 142 151 88 233 l-27 41 19 88 c18 84 20
146 7 256 -3 28 -8 84 -11 125 -6 87 -48 184 -135 315 -90 134 -147 184 -289
253 -165 81 -212 92 -369 88 -205 -6 -356 -46 -481 -130 -64 -43 -166 -147
-237 -241 -93 -125 -104 -147 -110 -223 -3 -37 -18 -112 -34 -167 -17 -55 -29
-118 -28 -140 2 -24 20 -75 46 -126 24 -47 43 -89 43 -92 0 -4 -13 -26 -30
-49 -47 -69 -45 -133 8 -190 27 -29 108 -66 119 -54 4 3 0 29 -9 56 -9 28 -14
50 -12 50 2 0 17 -26 33 -58 32 -63 88 -142 130 -182 41 -40 108 -90 120 -90
6 0 11 -3 11 -8 0 -4 12 -13 28 -19 15 -7 54 -24 87 -39 89 -39 221 -64 367
-68 14 -1 24 -5 21 -9 -7 -11 -197 3 -253 18 -8 3 -33 7 -54 11 -22 3 -71 17
-110 30 -39 13 -77 24 -83 24 -26 0 -120 -195 -147 -307 -8 -32 -18 -80 -21
-108 -22 -183 -26 -205 -34 -205 -4 0 -13 26 -20 58 -7 31 -28 120 -48 197
-19 77 -37 147 -39 155 -27 113 -131 488 -175 632 l-30 98 -52 15 c-29 8 -108
30 -176 50 -68 19 -126 34 -128 32 -1 -2 25 -44 59 -93 68 -98 186 -335 229
-458 34 -100 29 -115 -62 -196 -38 -34 -69 -69 -69 -78 0 -9 43 -59 95 -112
81 -83 93 -100 87 -121 l-7 -24 -3 25 c-2 14 -45 65 -109 129 l-104 105 85 84
c69 67 86 88 86 112 0 85 -212 508 -317 634 -18 21 -23 38 -21 65 3 33 8 38
65 66 41 19 83 51 121 91 36 38 68 63 87 67 17 3 49 14 73 24 l43 18 -35 46
c-41 55 -54 94 -33 102 13 5 33 8 122 21 24 4 23 23 -7 114 -12 37 -17 66 -12
71 5 5 45 23 89 41 92 36 147 68 140 80 -3 5 -41 29 -85 55 -72 41 -158 110
-149 119 2 2 40 16 84 31 94 31 214 90 281 135 l46 33 -58 27 c-33 14 -101 44
-151 65 -51 22 -93 43 -93 47 0 8 18 26 173 177 96 93 109 110 85 112 -7 0
-22 2 -33 5 -11 2 -69 11 -130 19 -60 9 -127 21 -148 26 l-38 10 35 65 c20 36
67 120 106 188 38 67 70 125 70 129 0 7 -27 -1 -180 -56 -175 -62 -186 -64
-194 -33 -3 14 -7 27 -7 28 -12 44 -20 125 -25 253 -4 88 -8 162 -10 164 -2 2
-21 -7 -41 -20 -21 -14 -49 -30 -63 -37 -48 -25 -145 -102 -216 -172 -82 -81
-72 -82 -147 19 -22 31 -46 61 -51 67 -6 6 -30 33 -53 60 -72 84 -104 117
-110 111 -3 -4 -16 -66 -29 -139 -25 -145 -52 -241 -75 -263 -12 -12 -25 -9
-94 21 -93 40 -239 87 -260 82 -11 -2 -7 -18 15 -71 53 -122 67 -168 76 -254
6 -53 6 -53 -22 -54 -29 0 -67 -3 -184 -14 -36 -3 -95 -8 -132 -11 -37 -3 -75
-7 -85 -9 -10 -2 -22 -4 -26 -4 -16 -2 -2 -20 69 -93 83 -86 147 -170 168
-220 19 -45 17 -47 -151 -169 -146 -105 -149 -107 -141 -114 3 -3 44 -16 92
-29 48 -14 109 -39 137 -56 46 -30 119 -104 119 -121 0 -4 -45 -54 -100 -110
-55 -56 -100 -108 -100 -115 0 -11 39 -27 199 -81 29 -10 56 -24 58 -31 3 -7
0 -34 -7 -60 -36 -141 -40 -157 -40 -171 0 -11 20 -13 109 -8 l109 6 6 -24 c4
-14 9 -51 12 -82 4 -32 9 -61 13 -64 3 -4 32 4 63 18 l57 25 -36 55 c-57 90
-115 242 -137 358 -29 161 -36 234 -25 241 5 3 9 -5 10 -18 8 -215 114 -523
216 -630 20 -20 73 -55 119 -78 74 -37 84 -45 84 -68 0 -15 -4 -32 -8 -37 -4
-6 -101 -42 -216 -80 -197 -66 -210 -72 -222 -101 -7 -16 -51 -163 -98 -325
-85 -296 -107 -363 -105 -324 3 49 -4 65 -53 120 -267 295 -443 626 -533 1000
-13 55 -26 120 -30 145 -3 25 -8 52 -10 60 -15 56 -21 355 -10 510 21 304 143
676 315 955 41 68 100 155 110 165 3 3 21 25 40 50 195 252 495 491 791 629
165 77 373 143 534 170 33 6 74 13 90 15 17 3 68 8 115 12 47 3 86 7 87 8 4 3
217 -2 293 -8z m-1206 -3237 c-42 -98 -124 -320 -147 -399 l-17 -55 97 -91 96
-92 -22 -31 c-28 -39 -32 -39 -18 -1 11 29 9 32 -73 115 -71 70 -85 90 -86
117 0 18 3 42 7 53 5 11 25 65 45 120 69 191 142 360 150 352 3 -2 -12 -42
-32 -88z"/>
</g>
</svg>
